<svg width="402" height="97" viewBox="0 0 402 97" fill="none" xmlns="http://www.w3.org/2000/svg">
<path d="M96.5819 48.0939C96.5819 74.6035 75.0916 96.0939 48.5819 96.0939C22.0722 96.0939 0.581909 74.6035 0.581909 48.0939C0.581909 21.5842 22.0722 0.0938721 48.5819 0.0938721C75.0916 0.0938721 96.5819 21.5842 96.5819 48.0939Z" fill="#0D0D0D"/>
<path fill-rule="evenodd" clip-rule="evenodd" d="M48.5819 95.3939C74.705 95.3939 95.8819 74.2169 95.8819 48.0939C95.8819 21.9708 74.705 0.793872 48.5819 0.793872C22.4588 0.793872 1.28191 21.9708 1.28191 48.0939C1.28191 74.2169 22.4588 95.3939 48.5819 95.3939ZM48.5819 96.0939C75.0916 96.0939 96.5819 74.6035 96.5819 48.0939C96.5819 21.5842 75.0916 0.0938721 48.5819 0.0938721C22.0722 0.0938721 0.581909 21.5842 0.581909 48.0939C0.581909 74.6035 22.0722 96.0939 48.5819 96.0939Z" fill="url(#paint0_linear_23_26)"/>
<path fill-rule="evenodd" clip-rule="evenodd" d="M23.9084 72.5939C24.1986 72.9272 24.5856 73.0939 25.0693 73.0939H45.4572C50.4877 73.0939 54.6475 72.4034 57.9367 71.0224C61.2742 69.5939 63.9829 67.4272 66.0628 64.5224C66.5567 63.8327 67.0233 63.1 67.4626 62.3243L56.2932 57.2188C55.9994 57.8 55.6765 58.3298 55.3247 58.8082C54.3573 60.1891 53.0997 61.2129 51.5518 61.8796C50.0524 62.4986 48.2385 62.8082 46.1102 62.8082H38.4919L41.2013 50.3203L29.316 44.8875L23.6182 71.3082C23.5214 71.832 23.6182 72.2605 23.9084 72.5939ZM30.7544 38.2172L42.6477 43.6536L44.8768 33.3796H52.1323C55.3247 33.3796 57.5739 34.1415 58.8799 35.6653C60.1859 37.1415 60.5486 39.4986 59.9682 42.7367C59.7263 44.0701 59.4845 45.2843 59.2426 46.3796C59.0492 47.4748 58.8073 48.5701 58.5171 49.6653C58.4376 50.0252 58.3529 50.4006 58.263 50.7913L70.091 56.1979C70.3656 55.3393 70.619 54.4475 70.8514 53.5224C71.3835 51.4748 71.8188 49.6653 72.1574 48.0939C72.496 46.5224 72.8346 44.6891 73.1732 42.5939C73.802 39.451 73.7052 36.6653 72.883 34.2367C72.109 31.8082 70.7789 29.7843 68.8924 28.1653C67.0544 26.4986 64.8052 25.2367 62.1448 24.3796C59.5329 23.5224 56.6549 23.0939 53.5108 23.0939H35.8074C35.3237 23.0939 34.8642 23.2605 34.4289 23.5939C33.9935 23.9272 33.7275 24.3558 33.6308 24.8796L30.7544 38.2172Z" fill="white"/>
<path fill-rule="evenodd" clip-rule="evenodd" d="M23.9084 72.5939C24.1986 72.9272 24.5856 73.0939 25.0693 73.0939H45.4572C50.4877 73.0939 54.6475 72.4034 57.9367 71.0224C61.2742 69.5939 63.9829 67.4272 66.0628 64.5224C66.5567 63.8327 67.0233 63.1 67.4626 62.3243L56.2932 57.2188C55.9994 57.8 55.6765 58.3298 55.3247 58.8082C54.3573 60.1891 53.0997 61.2129 51.5518 61.8796C50.0524 62.4986 48.2385 62.8082 46.1102 62.8082H38.4919L41.2013 50.3203L29.316 44.8875L23.6182 71.3082C23.5214 71.832 23.6182 72.2605 23.9084 72.5939ZM30.7544 38.2172L42.6477 43.6536L44.8768 33.3796H52.1323C55.3247 33.3796 57.5739 34.1415 58.8799 35.6653C60.1859 37.1415 60.5486 39.4986 59.9682 42.7367C59.7263 44.0701 59.4845 45.2843 59.2426 46.3796C59.0492 47.4748 58.8073 48.5701 58.5171 49.6653C58.4376 50.0252 58.3529 50.4006 58.263 50.7913L70.091 56.1979C70.3656 55.3393 70.619 54.4475 70.8514 53.5224C71.3835 51.4748 71.8188 49.6653 72.1574 48.0939C72.496 46.5224 72.8346 44.6891 73.1732 42.5939C73.802 39.451 73.7052 36.6653 72.883 34.2367C72.109 31.8082 70.7789 29.7843 68.8924 28.1653C67.0544 26.4986 64.8052 25.2367 62.1448 24.3796C59.5329 23.5224 56.6549 23.0939 53.5108 23.0939H35.8074C35.3237 23.0939 34.8642 23.2605 34.4289 23.5939C33.9935 23.9272 33.7275 24.3558 33.6308 24.8796L30.7544 38.2172Z" fill="url(#paint1_linear_23_26)"/>
<path d="M112.66 74.1345H133.794C139.289 74.1345 144.194 73.1236 148.509 71.1018C152.813 69.0935 156.352 66.1977 159.126 62.4143L146.692 56.7307C145.373 58.5184 143.777 59.8221 141.905 60.6418C139.809 61.5498 137.422 62.0039 134.745 62.0039H129.409L131.502 49.7873L117.878 43.5597L112.66 74.1345Z" fill="white"/>
<path d="M119.099 36.4039L121.642 21.5H141.931C147.496 21.5 152.146 22.588 155.88 24.764C159.613 26.9399 162.264 30.0497 163.831 34.0932C165.399 38.1367 165.707 42.9513 164.756 48.5369C164.281 51.3259 163.553 53.9054 162.572 56.2755L149.584 50.3389C149.853 49.3333 150.085 48.2529 150.279 47.0976C150.878 43.5338 150.86 40.7839 150.226 38.8478C149.592 36.8946 148.386 35.541 146.607 34.7871C144.828 34.0161 142.53 33.6306 139.712 33.6306H134.27L132.727 42.6336L119.099 36.4039Z" fill="white"/>
<path d="M179.026 73.6954H163.833L189.561 22.204H208.806L217.315 73.6954H202.121L197.056 36.3843H196.651L179.026 73.6954ZM188.623 53.3805H199.364L200.783 63.8397H183.682L188.623 53.3805Z" fill="white"/>
<path d="M245.405 22.204L251.381 37.1888H251.786L262.928 22.204H279.236L259.484 47.9497L271.234 73.6954H255.534L249.254 58.4089H248.848L237.504 73.6954H221.094L241.353 47.9497L230.211 22.204H245.405Z" fill="white"/>
<path d="M284.801 74.5C282.826 74.5 281.214 73.8212 279.964 72.4635C278.732 71.089 278.217 69.4213 278.42 67.4602C278.622 65.5493 279.492 63.9151 281.028 62.5574C282.581 61.1997 284.345 60.5209 286.32 60.5209C288.194 60.5209 289.756 61.1997 291.005 62.5574C292.271 63.9151 292.803 65.5493 292.6 67.4602C292.465 68.7676 292.001 69.9576 291.208 71.0304C290.431 72.0863 289.469 72.9328 288.321 73.5697C287.19 74.1899 286.016 74.5 284.801 74.5Z" fill="white"/>
<path d="M332.813 38.2951C332.965 36.6357 332.56 35.3367 331.598 34.398C330.636 33.4426 329.015 32.9649 326.736 32.9649C325.284 32.9649 324.069 33.1325 323.089 33.4677C322.127 33.803 321.376 34.2639 320.836 34.8506C320.312 35.4372 319.983 36.1161 319.848 36.8871C319.696 37.4905 319.705 38.0436 319.873 38.5465C320.059 39.0326 320.405 39.4768 320.912 39.879C321.435 40.2813 322.119 40.6417 322.963 40.9602C323.824 41.2786 324.845 41.5636 326.027 41.815L330.079 42.7201C332.847 43.3235 335.169 44.1197 337.042 45.1086C338.933 46.0808 340.419 47.2374 341.499 48.5783C342.58 49.9192 343.289 51.4194 343.626 53.0787C343.981 54.7381 343.989 56.5484 343.652 58.5095C343.078 61.8953 341.753 64.7615 339.676 67.1082C337.6 69.4548 334.89 71.2399 331.547 72.4635C328.205 73.6871 324.339 74.2989 319.949 74.2989C315.459 74.2989 311.643 73.6368 308.503 72.3126C305.38 70.9717 303.118 68.9268 301.717 66.1779C300.332 63.4122 299.995 59.8839 300.704 55.593H314.074C313.872 57.1686 314.041 58.4927 314.581 59.5655C315.121 60.6382 315.991 61.4511 317.189 62.0043C318.388 62.5574 319.882 62.834 321.671 62.834C323.191 62.834 324.491 62.6496 325.571 62.2808C326.652 61.9121 327.504 61.4009 328.129 60.7472C328.753 60.0935 329.133 59.3476 329.268 58.5095C329.403 57.7385 329.268 57.0512 328.863 56.4478C328.458 55.8444 327.724 55.2997 326.66 54.8136C325.596 54.3275 324.136 53.8833 322.279 53.481L317.316 52.3748C312.91 51.3691 309.584 49.7097 307.338 47.3966C305.093 45.0835 304.3 41.9156 304.958 37.8928C305.498 34.6075 306.857 31.7413 309.035 29.2941C311.23 26.8302 314.015 24.9194 317.392 23.5617C320.785 22.1872 324.541 21.5 328.66 21.5C332.847 21.5 336.35 22.1956 339.17 23.5868C342.006 24.978 344.04 26.9307 345.272 29.445C346.522 31.9592 346.859 34.9092 346.285 38.2951H332.813Z" fill="white"/>
<path d="M400.869 48.8548C399.924 54.4532 398.05 59.1464 395.247 62.9345C392.445 66.7226 389.043 69.5805 385.042 71.5081C381.041 73.4356 376.762 74.3994 372.204 74.3994C367.341 74.3994 363.121 73.3518 359.542 71.2566C355.963 69.1614 353.355 66.0941 351.717 62.0546C350.08 58.015 349.75 53.0787 350.73 47.2457C351.641 41.6474 353.498 36.9374 356.301 33.1157C359.103 29.2941 362.522 26.4028 366.556 24.4417C370.591 22.4806 374.905 21.5 379.497 21.5C384.325 21.5 388.52 22.556 392.082 24.6679C395.661 26.7799 398.261 29.8724 399.882 33.9454C401.519 38.0185 401.848 42.9883 400.869 48.8548ZM386.688 47.2457C387.161 44.2957 387.195 41.815 386.79 39.8036C386.384 37.7755 385.532 36.2502 384.232 35.2277C382.932 34.1885 381.185 33.6689 378.99 33.6689C376.492 33.6689 374.28 34.2723 372.355 35.4791C370.431 36.686 368.836 38.4208 367.569 40.6836C366.303 42.9464 365.417 45.6701 364.91 48.8548C364.37 51.8384 364.32 54.3191 364.759 56.297C365.214 58.2748 366.109 59.7582 367.443 60.7472C368.793 61.7361 370.549 62.2305 372.71 62.2305C375.175 62.2305 377.353 61.6439 379.243 60.4706C381.151 59.2973 382.729 57.596 383.979 55.3667C385.245 53.1374 386.148 50.4304 386.688 47.2457Z" fill="white"/>
<defs>
<linearGradient id="paint0_linear_23_26" x1="38.5819" y1="36.0939" x2="18.5819" y2="10.0939" gradientUnits="userSpaceOnUse">
<stop stop-color="#5E5E5E"/>
<stop offset="1" stop-color="white"/>
</linearGradient>
<linearGradient id="paint1_linear_23_26" x1="69.0819" y1="26.0939" x2="23.5819" y2="73.0939" gradientUnits="userSpaceOnUse">
<stop stop-color="#FF922E"/>
<stop offset="0.31533" stop-color="#E53E5E"/>
<stop offset="0.612223" stop-color="#495BB5"/>
<stop offset="1" stop-color="#A939D0"/>
</linearGradient>
</defs>
</svg>
