<svg width="96" height="96" viewBox="0 0 96 96" fill="none" xmlns="http://www.w3.org/2000/svg">
<circle cx="48" cy="48" r="47.65" fill="#0D0D0D" stroke="url(#paint0_linear_1_138)" stroke-width="0.7"/>
<path fill-rule="evenodd" clip-rule="evenodd" d="M23.3265 72.5C23.6167 72.8333 24.0037 73 24.4874 73H44.8753C49.9058 73 54.0656 72.3095 57.3547 70.9286C60.6923 69.5 63.401 67.3333 65.4809 64.4286C65.9748 63.7388 66.4414 63.0061 66.8807 62.2304L55.7113 57.1249C55.4175 57.7061 55.0946 58.2359 54.7428 58.7143C53.7754 60.0952 52.5178 61.119 50.9699 61.7857C49.4704 62.4048 47.6566 62.7143 45.5283 62.7143H37.91L40.6194 50.2264L28.734 44.7936L23.0363 71.2143C22.9395 71.7381 23.0363 72.1667 23.3265 72.5ZM30.1725 38.1233L42.0658 43.5597L44.2949 33.2857H51.5504C54.7428 33.2857 56.992 34.0476 58.298 35.5714C59.604 37.0476 59.9667 39.4048 59.3863 42.6429C59.1444 43.9762 58.9026 45.1905 58.6607 46.2857C58.4673 47.381 58.2254 48.4762 57.9352 49.5714C57.8557 49.9313 57.771 50.3067 57.6811 50.6975L69.509 56.104C69.7836 55.2455 70.0371 54.3536 70.2695 53.4286C70.8016 51.381 71.2369 49.5714 71.5755 48C71.9141 46.4286 72.2527 44.5952 72.5913 42.5C73.2201 39.3571 73.1233 36.5714 72.3011 34.1429C71.5271 31.7143 70.197 29.6905 68.3105 28.0714C66.4725 26.4048 64.2233 25.1429 61.5629 24.2857C58.951 23.4286 56.0729 23 52.9289 23H35.2255C34.7418 23 34.2823 23.1667 33.847 23.5C33.4116 23.8333 33.1456 24.2619 33.0489 24.7857L30.1725 38.1233Z" fill="white"/>
<path fill-rule="evenodd" clip-rule="evenodd" d="M23.3265 72.5C23.6167 72.8333 24.0037 73 24.4874 73H44.8753C49.9058 73 54.0656 72.3095 57.3547 70.9286C60.6923 69.5 63.401 67.3333 65.4809 64.4286C65.9748 63.7388 66.4414 63.0061 66.8807 62.2304L55.7113 57.1249C55.4175 57.7061 55.0946 58.2359 54.7428 58.7143C53.7754 60.0952 52.5178 61.119 50.9699 61.7857C49.4704 62.4048 47.6566 62.7143 45.5283 62.7143H37.91L40.6194 50.2264L28.734 44.7936L23.0363 71.2143C22.9395 71.7381 23.0363 72.1667 23.3265 72.5ZM30.1725 38.1233L42.0658 43.5597L44.2949 33.2857H51.5504C54.7428 33.2857 56.992 34.0476 58.298 35.5714C59.604 37.0476 59.9667 39.4048 59.3863 42.6429C59.1444 43.9762 58.9026 45.1905 58.6607 46.2857C58.4673 47.381 58.2254 48.4762 57.9352 49.5714C57.8557 49.9313 57.771 50.3067 57.6811 50.6975L69.509 56.104C69.7836 55.2455 70.0371 54.3536 70.2695 53.4286C70.8016 51.381 71.2369 49.5714 71.5755 48C71.9141 46.4286 72.2527 44.5952 72.5913 42.5C73.2201 39.3571 73.1233 36.5714 72.3011 34.1429C71.5271 31.7143 70.197 29.6905 68.3105 28.0714C66.4725 26.4048 64.2233 25.1429 61.5629 24.2857C58.951 23.4286 56.0729 23 52.9289 23H35.2255C34.7418 23 34.2823 23.1667 33.847 23.5C33.4116 23.8333 33.1456 24.2619 33.0489 24.7857L30.1725 38.1233Z" fill="url(#paint1_linear_1_138)"/>
<defs>
<linearGradient id="paint0_linear_1_138" x1="38" y1="36" x2="18" y2="10" gradientUnits="userSpaceOnUse">
<stop stop-color="#5E5E5E"/>
<stop offset="1" stop-color="white"/>
</linearGradient>
<linearGradient id="paint1_linear_1_138" x1="68.5" y1="26" x2="23" y2="73" gradientUnits="userSpaceOnUse">
<stop stop-color="#FF922E"/>
<stop offset="0.31533" stop-color="#E53E5E"/>
<stop offset="0.612223" stop-color="#495BB5"/>
<stop offset="1" stop-color="#A939D0"/>
</linearGradient>
</defs>
</svg>
